<svg xmlns="http://www.w3.org/2000/svg" width="48.054" height="27.764" viewBox="0 0 48.054 27.764">
  <path id="Path_151" data-name="Path 151" d="M17.625.8a14.338,14.338,0,0,1-5.375-1A13.031,13.031,0,0,1,7.888-3.038,13.272,13.272,0,0,1,4.975-7.35a13.815,13.815,0,0,1-1.05-5.45,14.053,14.053,0,0,1,1.037-5.463,12.848,12.848,0,0,1,2.913-4.312A13.3,13.3,0,0,1,12.238-25.4a14.31,14.31,0,0,1,5.388-1,14.861,14.861,0,0,1,4.825.775,12.865,12.865,0,0,1,4,2.175l-1,1.3a12.01,12.01,0,0,0-7.725-2.55,12.257,12.257,0,0,0-6.175,1.538,11.128,11.128,0,0,0-4.237,4.237A12.157,12.157,0,0,0,5.775-12.8,12.185,12.185,0,0,0,7.3-6.7a11.128,11.128,0,0,0,4.225,4.25A12.28,12.28,0,0,0,17.75-.9a13.154,13.154,0,0,0,4.163-.65A10.8,10.8,0,0,0,25.4-3.45l1.05,1.3A14.151,14.151,0,0,1,22.425.013,14.427,14.427,0,0,1,17.625.8ZM41.836.5A15.275,15.275,0,0,1,36.45-.473,10.458,10.458,0,0,1,32.134-3.4l2.457-3.4a12.179,12.179,0,0,0,3.37,2.363,8.246,8.246,0,0,0,3.434.788,8.232,8.232,0,0,0,2.331-.315,3.7,3.7,0,0,0,1.733-1.039,2.832,2.832,0,0,0,.661-1.985A2.814,2.814,0,0,0,45.207-9.2a6.918,6.918,0,0,0-2.331-1.323q-1.418-.5-2.993-.945a11.229,11.229,0,0,1-4.914-2.961,6.629,6.629,0,0,1-1.7-4.6,7.6,7.6,0,0,1,1.04-3.875,7.854,7.854,0,0,1,3.087-2.93,10.351,10.351,0,0,1,5.072-1.134,16.426,16.426,0,0,1,4.851.662,12.187,12.187,0,0,1,4.032,2.174l-2.331,3.654a6.894,6.894,0,0,0-2.709-1.764,9.956,9.956,0,0,0-2.835-.63,4.822,4.822,0,0,0-2.048.315,4.156,4.156,0,0,0-1.607,1.071,2.355,2.355,0,0,0-.63,1.638,2.787,2.787,0,0,0,.882,2.142,6.214,6.214,0,0,0,2.3,1.292q1.417.473,2.8.977a13.719,13.719,0,0,1,3.465,1.512,7.812,7.812,0,0,1,2.426,2.331,6.168,6.168,0,0,1,.914,3.465,8.74,8.74,0,0,1-1.1,4.316,7.834,7.834,0,0,1-3.339,3.15A12.291,12.291,0,0,1,41.836.5Z" transform="translate(-3.925 26.964)" fill="#fff"/>
</svg>
