<svg xmlns="http://www.w3.org/2000/svg" width="43" height="43.048" viewBox="0 0 43 43.048">
  <g id="des-menu" transform="translate(-1596.058 -128.898)">
    <g id="Rectangle_89" data-name="Rectangle 89" transform="translate(1596.058 128.898)" fill="none" stroke="#fff" stroke-width="2">
      <path d="M5,0H20a0,0,0,0,1,0,0V20a0,0,0,0,1,0,0H0a0,0,0,0,1,0,0V5A5,5,0,0,1,5,0Z" stroke="none"/>
      <path d="M5,1H18a1,1,0,0,1,1,1V18a1,1,0,0,1-1,1H2a1,1,0,0,1-1-1V5A4,4,0,0,1,5,1Z" fill="none"/>
    </g>
    <g id="Rectangle_90" data-name="Rectangle 90" transform="translate(1619.058 128.898)" fill="none" stroke="#fff" stroke-width="2">
      <path d="M0,0H15a5,5,0,0,1,5,5V20a0,0,0,0,1,0,0H0a0,0,0,0,1,0,0V0A0,0,0,0,1,0,0Z" stroke="none"/>
      <path d="M2,1H15a4,4,0,0,1,4,4V18a1,1,0,0,1-1,1H2a1,1,0,0,1-1-1V2A1,1,0,0,1,2,1Z" fill="none"/>
    </g>
    <g id="Rectangle_91" data-name="Rectangle 91" transform="translate(1596.058 151.946)" fill="none" stroke="#fff" stroke-width="2">
      <path d="M0,0H20a0,0,0,0,1,0,0V20a0,0,0,0,1,0,0H5a5,5,0,0,1-5-5V0A0,0,0,0,1,0,0Z" stroke="none"/>
      <path d="M2,1H18a1,1,0,0,1,1,1V18a1,1,0,0,1-1,1H5a4,4,0,0,1-4-4V2A1,1,0,0,1,2,1Z" fill="none"/>
    </g>
    <g id="Rectangle_92" data-name="Rectangle 92" transform="translate(1619.058 151.945)" fill="none" stroke="#fff" stroke-width="2">
      <path d="M0,0H20a0,0,0,0,1,0,0V15a5,5,0,0,1-5,5H0a0,0,0,0,1,0,0V0A0,0,0,0,1,0,0Z" stroke="none"/>
      <path d="M2,1H18a1,1,0,0,1,1,1V15a4,4,0,0,1-4,4H2a1,1,0,0,1-1-1V2A1,1,0,0,1,2,1Z" fill="none"/>
    </g>
  </g>
</svg>
