<svg xmlns="http://www.w3.org/2000/svg" width="20.891" height="20.929" viewBox="0 0 20.891 20.929">
  <path id="Path_146" data-name="Path 146" d="M21,16.171V19.02a1.9,1.9,0,0,1-2.071,1.9A18.8,18.8,0,0,1,10.734,18a18.521,18.521,0,0,1-5.7-5.7A18.8,18.8,0,0,1,2.12,4.071,1.9,1.9,0,0,1,4.01,2H6.859a1.9,1.9,0,0,1,1.9,1.634A12.2,12.2,0,0,0,9.423,6.3a1.9,1.9,0,0,1-.427,2L7.79,9.513a15.2,15.2,0,0,0,5.7,5.7l1.206-1.206a1.9,1.9,0,0,1,2-.427,12.2,12.2,0,0,0,2.669.665A1.9,1.9,0,0,1,21,16.171Z" transform="translate(-1.111 -1)" fill="none" stroke="#fff" stroke-linecap="round" stroke-linejoin="round" stroke-width="2"/>
</svg>
